<svg width="266" height="208" viewBox="0 0 266 208" fill="none" xmlns="http://www.w3.org/2000/svg">
<g filter="url(#filter0_d)">
<rect x="41.3229" y="42.0642" width="182.566" height="124.357" rx="14.5524" fill="#1F72CD" stroke="#D9D9D9" stroke-width="2.64589"/>
<path fill-rule="evenodd" clip-rule="evenodd" d="M73.2041 85.7212L55.8753 124.069H76.6203L79.1921 117.955H85.0706L87.6424 124.069H110.477V119.403L112.512 124.069H124.323L126.358 119.304V124.069H173.847L179.622 118.114L185.029 124.069L209.42 124.119L192.037 105.002L209.42 85.7212H185.407L179.786 91.5666L174.549 85.7212H122.887L118.451 95.6192L113.91 85.7212H93.2088V90.229L90.9058 85.7212H73.2041ZM77.2182 91.1668H87.3303L98.8245 117.171V91.1668H109.902L118.78 109.812L126.962 91.1668H137.984V118.684H131.277L131.222 97.1217L121.445 118.684H115.445L105.613 97.1217V118.684H91.8158L89.2001 112.515H75.0686L72.4583 118.679H65.066L77.2182 91.1668ZM171.391 91.1668H144.12V118.668H170.968L179.622 109.554L187.963 118.668H196.682L184.009 104.997L196.682 91.1668H188.341L179.731 100.176L171.391 91.1668ZM82.1374 95.8223L77.4817 106.812H86.7878L82.1374 95.8223ZM150.854 101.888V96.8645V96.8597H167.87L175.295 104.893L167.541 112.971H150.854V107.487H165.732V101.888H150.854Z" fill="white"/>
</g>
<defs>
<filter id="filter0_d" x="0" y="0.741211" width="265.212" height="207.002" filterUnits="userSpaceOnUse" color-interpolation-filters="sRGB">
<feFlood flood-opacity="0" result="BackgroundImageFix"/>
<feColorMatrix in="SourceAlpha" type="matrix" values="0 0 0 0 0 0 0 0 0 0 0 0 0 0 0 0 0 0 127 0"/>
<feOffset/>
<feGaussianBlur stdDeviation="20"/>
<feColorMatrix type="matrix" values="0 0 0 0 0 0 0 0 0 0 0 0 0 0 0 0 0 0 0.08 0"/>
<feBlend mode="normal" in2="BackgroundImageFix" result="effect1_dropShadow"/>
<feBlend mode="normal" in="SourceGraphic" in2="effect1_dropShadow" result="shape"/>
</filter>
</defs>
</svg>
