<svg width="266" height="208" viewBox="0 0 266 208" fill="none" xmlns="http://www.w3.org/2000/svg">
<g filter="url(#filter0_d)">
<rect x="41.3229" y="41.863" width="182.566" height="124.357" rx="14.5524" fill="white" stroke="#D9D9D9" stroke-width="2.64589"/>
<path fill-rule="evenodd" clip-rule="evenodd" d="M157.073 141.242C177.016 141.242 193.183 124.888 193.183 104.713C193.183 84.5389 177.016 68.1843 157.073 68.1843C148.135 68.1843 139.956 71.4692 133.65 76.9106C127.345 71.4693 119.166 68.1844 110.228 68.1844C90.285 68.1844 74.1181 84.539 74.1181 104.713C74.1181 124.888 90.285 141.242 110.228 141.242C119.166 141.242 127.345 137.958 133.651 132.516C139.956 137.958 148.135 141.242 157.073 141.242Z" fill="#ED0006"/>
<path fill-rule="evenodd" clip-rule="evenodd" d="M133.651 132.516C141.415 125.816 146.338 115.846 146.338 104.713C146.338 93.5804 141.415 83.6107 133.651 76.9106C139.956 71.4692 148.135 68.1843 157.073 68.1843C177.016 68.1843 193.183 84.5389 193.183 104.713C193.183 124.888 177.016 141.242 157.073 141.242C148.135 141.242 139.956 137.957 133.651 132.516Z" fill="#F9A000"/>
<path fill-rule="evenodd" clip-rule="evenodd" d="M133.651 132.516C141.415 125.816 146.338 115.846 146.338 104.713C146.338 93.5804 141.415 83.6107 133.651 76.9106C125.887 83.6107 120.964 93.5804 120.964 104.713C120.964 115.846 125.887 125.816 133.651 132.516Z" fill="#FF5E00"/>
</g>
<defs>
<filter id="filter0_d" x="0" y="0.540039" width="265.212" height="207.002" filterUnits="userSpaceOnUse" color-interpolation-filters="sRGB">
<feFlood flood-opacity="0" result="BackgroundImageFix"/>
<feColorMatrix in="SourceAlpha" type="matrix" values="0 0 0 0 0 0 0 0 0 0 0 0 0 0 0 0 0 0 127 0"/>
<feOffset/>
<feGaussianBlur stdDeviation="20"/>
<feColorMatrix type="matrix" values="0 0 0 0 0 0 0 0 0 0 0 0 0 0 0 0 0 0 0.08 0"/>
<feBlend mode="normal" in2="BackgroundImageFix" result="effect1_dropShadow"/>
<feBlend mode="normal" in="SourceGraphic" in2="effect1_dropShadow" result="shape"/>
</filter>
</defs>
</svg>
