<svg width="267" height="208" viewBox="0 0 267 208" fill="none" xmlns="http://www.w3.org/2000/svg">
<g filter="url(#filter0_d)">
<rect x="42.2565" y="41.3229" width="182.566" height="124.357" rx="14.5524" fill="white" stroke="#D9D9D9" stroke-width="2.64589"/>
<path fill-rule="evenodd" clip-rule="evenodd" d="M97.16 126.035H85.9398L77.526 93.9358C77.1266 92.4592 76.2787 91.1539 75.0314 90.5386C71.9186 88.9925 68.4885 87.7621 64.7466 87.1415V85.9057H82.8215C85.3161 85.9057 87.1871 87.7621 87.4989 89.9181L91.8645 113.072L103.079 85.9057H113.988L97.16 126.035ZM120.224 126.035H109.628L118.353 85.9057H128.95L120.224 126.035ZM142.659 97.0225C142.971 94.8612 144.842 93.6254 147.025 93.6254C150.455 93.3151 154.191 93.9357 157.31 95.4764L159.181 86.8364C156.062 85.6006 152.632 84.98 149.519 84.98C139.235 84.98 131.751 90.5385 131.751 98.253C131.751 104.122 137.052 107.203 140.794 109.06C144.842 110.911 146.401 112.147 146.089 113.998C146.089 116.774 142.971 118.01 139.858 118.01C136.116 118.01 132.375 117.085 128.95 115.538L127.079 124.184C130.821 125.725 134.869 126.345 138.611 126.345C150.143 126.65 157.31 121.097 157.31 112.762C157.31 102.265 142.659 101.65 142.659 97.0225V97.0225ZM194.395 126.035L185.981 85.9057H176.944C175.073 85.9057 173.202 87.1415 172.578 88.9925L156.998 126.035H167.906L170.084 120.172H183.487L184.734 126.035H194.395ZM178.503 96.7121L181.616 111.836H172.89L178.503 96.7121Z" fill="#172B85"/>
</g>
<defs>
<filter id="filter0_d" x="0.933594" y="0" width="265.212" height="207.002" filterUnits="userSpaceOnUse" color-interpolation-filters="sRGB">
<feFlood flood-opacity="0" result="BackgroundImageFix"/>
<feColorMatrix in="SourceAlpha" type="matrix" values="0 0 0 0 0 0 0 0 0 0 0 0 0 0 0 0 0 0 127 0"/>
<feOffset/>
<feGaussianBlur stdDeviation="20"/>
<feColorMatrix type="matrix" values="0 0 0 0 0 0 0 0 0 0 0 0 0 0 0 0 0 0 0.08 0"/>
<feBlend mode="normal" in2="BackgroundImageFix" result="effect1_dropShadow"/>
<feBlend mode="normal" in="SourceGraphic" in2="effect1_dropShadow" result="shape"/>
</filter>
</defs>
</svg>
